<svg width="236" height="68" viewBox="0 0 236 68" fill="none" xmlns="http://www.w3.org/2000/svg">
<path d="M5.06925 58.4907V67.218H4.01243V59.5987H3.96129L1.83061 61.0135V59.9396L4.01243 58.4907H5.06925Z" fill="white"/>
<path d="M29.6372 0H27.4419V56.2406H29.6372V0Z" fill="white"/>
<path d="M34.0279 0H31.8325V56.2406H34.0279V0Z" fill="white"/>
<path d="M2.19535 0H0V56.2406H2.19535V0Z" fill="white"/>
<path d="M6.58597 0H4.39062V56.2406H6.58597V0Z" fill="white"/>
<path d="M17.5626 0H8.78125V51.1278H17.5626V0Z" fill="white"/>
<path d="M24.149 0H20.856V51H24.149V0Z" fill="white"/>
<path d="M40.6138 0H38.4185V51.1278H40.6138V0Z" fill="white"/>
<path d="M49.3951 0H45.0044V51.1278H49.3951V0Z" fill="white"/>
<path d="M64.7627 0H62.5674V51.1278H64.7627V0Z" fill="white"/>
<path d="M75.7394 0H69.1533V51.1278H75.7394V0Z" fill="white"/>
<path d="M80.1299 0H77.9346V51.1278H80.1299V0Z" fill="white"/>
<path d="M86.7159 0H82.3252V51.1278H86.7159V0Z" fill="white"/>
<path d="M95.4976 0H93.3022V51.1278H95.4976V0Z" fill="white"/>
<path d="M106.474 0H104.279V51.1278H106.474V0Z" fill="white"/>
<path d="M110.865 0H108.669V51.1278H110.865V0Z" fill="white"/>
<path d="M117.451 0H115.256V51.1278H117.451V0Z" fill="white"/>
<path d="M126.232 0H124.037V51.1278H126.232V0Z" fill="white"/>
<path d="M58.9082 67.218V66.451L61.7889 63.2976C62.127 62.9282 62.4054 62.6072 62.6241 62.3345C62.8429 62.0589 63.0048 61.8004 63.1099 61.5589C63.2179 61.3146 63.2719 61.0589 63.2719 60.7919C63.2719 60.4851 63.198 60.2194 63.0503 59.995C62.9054 59.7706 62.7065 59.5973 62.4537 59.4751C62.2008 59.353 61.9167 59.2919 61.6014 59.2919C61.2662 59.2919 60.9736 59.3615 60.7236 59.5007C60.4764 59.6371 60.2846 59.8288 60.1483 60.076C60.0147 60.3231 59.948 60.6129 59.948 60.9453H58.9423C58.9423 60.4339 59.0602 59.9851 59.296 59.5987C59.5318 59.2123 59.8528 58.9112 60.2591 58.6953C60.6682 58.4794 61.127 58.3714 61.6355 58.3714C62.1469 58.3714 62.6 58.4794 62.9949 58.6953C63.3897 58.9112 63.6994 59.2024 63.9238 59.5689C64.1483 59.9353 64.2605 60.343 64.2605 60.7919C64.2605 61.1129 64.2022 61.4268 64.0858 61.7336C63.9721 62.0376 63.7733 62.3771 63.4892 62.7521C63.2079 63.1243 62.8173 63.5788 62.3173 64.1157L60.3571 66.2123V66.2805H64.4139V67.218H58.9082ZM69.1227 67.3373C68.5602 67.3373 68.0588 67.2407 67.6184 67.0476C67.1809 66.8544 66.8329 66.5859 66.5744 66.2422C66.3187 65.8956 66.1795 65.4936 66.1568 65.0362H67.2307C67.2534 65.3174 67.35 65.5603 67.5204 65.7649C67.6909 65.9666 67.9139 66.1228 68.1895 66.2336C68.465 66.3444 68.7704 66.3998 69.1057 66.3998C69.4807 66.3998 69.813 66.3345 70.1028 66.2038C70.3926 66.0731 70.6199 65.8913 70.7846 65.6584C70.9494 65.4254 71.0318 65.1555 71.0318 64.8487C71.0318 64.5277 70.9522 64.245 70.7932 64.0007C70.6341 63.7535 70.4011 63.5603 70.0943 63.4211C69.7875 63.2819 69.4125 63.2123 68.9693 63.2123H68.2704V62.2748H68.9693C69.3159 62.2748 69.6199 62.2123 69.8812 62.0873C70.1454 61.9623 70.3514 61.7862 70.4991 61.5589C70.6497 61.3317 70.725 61.0646 70.725 60.7578C70.725 60.4623 70.6596 60.2052 70.529 59.9865C70.3983 59.7677 70.2136 59.5973 69.975 59.4751C69.7392 59.353 69.4608 59.2919 69.1397 59.2919C68.8386 59.2919 68.5545 59.3473 68.2875 59.4581C68.0233 59.566 67.8074 59.7237 67.6397 59.9311C67.4721 60.1356 67.3812 60.3828 67.367 60.6726H66.3443C66.3613 60.2152 66.4991 59.8146 66.7576 59.4709C67.0162 59.1243 67.3542 58.8544 67.7719 58.6612C68.1923 58.468 68.654 58.3714 69.1568 58.3714C69.6966 58.3714 70.1596 58.4808 70.546 58.6996C70.9324 58.9155 71.2292 59.201 71.4366 59.5561C71.644 59.9112 71.7477 60.2947 71.7477 60.7067C71.7477 61.1981 71.6184 61.6172 71.3599 61.9638C71.1042 62.3103 70.7562 62.5504 70.3159 62.6839V62.7521C70.867 62.843 71.2974 63.0774 71.6071 63.4552C71.9167 63.8302 72.0716 64.2947 72.0716 64.8487C72.0716 65.3231 71.9423 65.7493 71.6838 66.1271C71.4281 66.5021 71.0787 66.7976 70.6355 67.0135C70.1923 67.2294 69.688 67.3373 69.1227 67.3373ZM73.6099 65.4282V64.5589L77.4451 58.4907H78.0758V59.8373H77.6497L74.752 64.4226V64.4907H79.9167V65.4282H73.6099ZM77.7179 67.218V65.164V64.7592V58.4907H78.7236V67.218H77.7179ZM84.241 67.3373C83.741 67.3373 83.2907 67.2379 82.8901 67.039C82.4895 66.8402 82.1685 66.5674 81.927 66.2209C81.6856 65.8743 81.5535 65.4794 81.5307 65.0362H82.5535C82.5932 65.4311 82.7722 65.7578 83.0904 66.0163C83.4114 66.272 83.7949 66.3998 84.241 66.3998C84.5989 66.3998 84.9171 66.316 85.1955 66.1484C85.4768 65.9808 85.6969 65.7507 85.856 65.4581C86.0179 65.1626 86.0989 64.8288 86.0989 64.4567C86.0989 64.076 86.0151 63.7365 85.8475 63.4382C85.6827 63.1371 85.4554 62.8998 85.1657 62.7265C84.8759 62.5532 84.5449 62.4652 84.1728 62.4623C83.9057 62.4595 83.6316 62.5007 83.3503 62.5859C83.0691 62.6683 82.8375 62.7748 82.6557 62.9055L81.6671 62.7862L82.1955 58.4907H86.7296V59.4282H83.0819L82.775 62.0021H82.8262C83.0052 61.8601 83.2296 61.7422 83.4995 61.6484C83.7694 61.5547 84.0506 61.5078 84.3432 61.5078C84.8773 61.5078 85.3532 61.6356 85.7708 61.8913C86.1912 62.1442 86.5208 62.4907 86.7594 62.9311C87.0009 63.3714 87.1216 63.8743 87.1216 64.4396C87.1216 64.9964 86.9966 65.4936 86.7466 65.9311C86.4995 66.3657 86.1586 66.7095 85.7239 66.9623C85.2893 67.2123 84.7949 67.3373 84.241 67.3373ZM91.7122 67.3373C91.3542 67.3317 90.9963 67.2635 90.6383 67.1328C90.2804 67.0021 89.9537 66.7819 89.6582 66.4723C89.3628 66.1598 89.1255 65.7379 88.9466 65.2067C88.7676 64.6726 88.6781 64.0021 88.6781 63.1953C88.6781 62.4226 88.7505 61.7379 88.8954 61.1413C89.0403 60.5419 89.2505 60.0376 89.5261 59.6285C89.8017 59.2166 90.1341 58.9041 90.5233 58.691C90.9153 58.478 91.3571 58.3714 91.8486 58.3714C92.3372 58.3714 92.7719 58.4694 93.1525 58.6655C93.5361 58.8586 93.8486 59.1285 94.09 59.4751C94.3315 59.8217 94.4878 60.2209 94.5588 60.6726H93.519C93.4224 60.2805 93.2349 59.9552 92.9565 59.6967C92.6781 59.4382 92.3088 59.3089 91.8486 59.3089C91.1724 59.3089 90.6397 59.603 90.2505 60.191C89.8642 60.7791 89.6696 61.6044 89.6667 62.6669H89.7349C89.894 62.4254 90.0829 62.2194 90.3017 62.049C90.5233 61.8757 90.7676 61.7422 91.0346 61.6484C91.3017 61.5547 91.5844 61.5078 91.8826 61.5078C92.3826 61.5078 92.84 61.6328 93.2548 61.8828C93.6696 62.1299 94.002 62.4723 94.252 62.9098C94.502 63.3444 94.627 63.843 94.627 64.4055C94.627 64.9453 94.5062 65.4396 94.2647 65.8885C94.0233 66.3345 93.6838 66.6896 93.2463 66.9538C92.8116 67.2152 92.3003 67.343 91.7122 67.3373ZM91.7122 66.3998C92.0701 66.3998 92.3912 66.3103 92.6753 66.1314C92.9622 65.9524 93.188 65.7123 93.3528 65.4112C93.5204 65.1101 93.6042 64.7748 93.6042 64.4055C93.6042 64.0447 93.5233 63.7166 93.3613 63.4211C93.2022 63.1228 92.9821 62.8856 92.7008 62.7095C92.4224 62.5334 92.1042 62.4453 91.7463 62.4453C91.4764 62.4453 91.225 62.4993 90.992 62.6072C90.7591 62.7123 90.5545 62.8572 90.3784 63.0419C90.2051 63.2265 90.0687 63.4382 89.9693 63.6768C89.8699 63.9126 89.8201 64.1612 89.8201 64.4226C89.8201 64.7692 89.9011 65.093 90.063 65.3942C90.2278 65.6953 90.4522 65.9382 90.7363 66.1228C91.0233 66.3075 91.3486 66.3998 91.7122 66.3998ZM96.5755 67.218L100.479 59.4964V59.4282H95.9789V58.4907H101.57V59.4794L97.6834 67.218H96.5755Z" fill="white"/>
<path d="M130.623 0H128.428V56.2406H130.623V0Z" fill="white"/>
<path d="M135.014 0H132.818V56.2406H135.014V0Z" fill="white"/>
<path d="M139.405 0H137.209V51.1278H139.405V0Z" fill="white"/>
<path d="M145.991 0H143.795V51.1278H145.991V0Z" fill="white"/>
<path d="M159.163 0H152.577V51.1278H159.163V0Z" fill="white"/>
<path d="M163.554 0H161.358V51.1278H163.554V0Z" fill="white"/>
<path d="M172.335 0H167.944V51.1278H172.335V0Z" fill="white"/>
<path d="M181.116 0H176.726V51.1278H181.116V0Z" fill="white"/>
<path d="M189.898 0H183.312V51.1278H189.898V0Z" fill="white"/>
<path d="M196.484 0H194.289V51.1278H196.484V0Z" fill="white"/>
<path d="M203.07 0H198.679V51.1278H203.07V0Z" fill="white"/>
<path d="M209.656 0H205.265V51.1278H209.656V0Z" fill="white"/>
<path d="M216.242 0H214.047V51.1278H216.242V0Z" fill="white"/>
<path d="M220.633 0H218.438V51.1278H220.633V0Z" fill="white"/>
<path d="M165.653 67.3373C165.068 67.3373 164.551 67.2336 164.102 67.0263C163.656 66.816 163.308 66.5277 163.058 66.1612C162.808 65.7919 162.685 65.3714 162.687 64.8998C162.685 64.5305 162.757 64.1896 162.905 63.8771C163.053 63.5618 163.254 63.299 163.51 63.0888C163.768 62.8757 164.057 62.7407 164.375 62.6839V62.6328C163.957 62.5248 163.625 62.2905 163.378 61.9297C163.131 61.566 163.008 61.1527 163.011 60.6896C163.008 60.2464 163.121 59.8501 163.348 59.5007C163.575 59.1513 163.888 58.8757 164.285 58.674C164.686 58.4723 165.142 58.3714 165.653 58.3714C166.159 58.3714 166.611 58.4723 167.008 58.674C167.406 58.8757 167.719 59.1513 167.946 59.5007C168.176 59.8501 168.293 60.2464 168.295 60.6896C168.293 61.1527 168.166 61.566 167.916 61.9297C167.669 62.2905 167.341 62.5248 166.932 62.6328V62.6839C167.247 62.7407 167.531 62.8757 167.784 63.0888C168.037 63.299 168.239 63.5618 168.389 63.8771C168.54 64.1896 168.616 64.5305 168.619 64.8998C168.616 65.3714 168.489 65.7919 168.236 66.1612C167.986 66.5277 167.638 66.816 167.192 67.0263C166.749 67.2336 166.236 67.3373 165.653 67.3373ZM165.653 66.3998C166.048 66.3998 166.389 66.3359 166.676 66.2081C166.963 66.0802 167.185 65.8998 167.341 65.6669C167.497 65.4339 167.577 65.1612 167.579 64.8487C167.577 64.5192 167.491 64.228 167.324 63.9751C167.156 63.7223 166.928 63.5234 166.638 63.3785C166.351 63.2336 166.023 63.1612 165.653 63.1612C165.281 63.1612 164.949 63.2336 164.656 63.3785C164.366 63.5234 164.138 63.7223 163.97 63.9751C163.805 64.228 163.724 64.5192 163.727 64.8487C163.724 65.1612 163.8 65.4339 163.953 65.6669C164.109 65.8998 164.332 66.0802 164.622 66.2081C164.912 66.3359 165.256 66.3998 165.653 66.3998ZM165.653 62.2578C165.966 62.2578 166.243 62.1953 166.484 62.0703C166.729 61.9453 166.92 61.7706 167.06 61.5461C167.199 61.3217 167.27 61.0589 167.273 60.7578C167.27 60.4623 167.2 60.2052 167.064 59.9865C166.928 59.7649 166.739 59.5944 166.497 59.4751C166.256 59.353 165.974 59.2919 165.653 59.2919C165.327 59.2919 165.041 59.353 164.797 59.4751C164.553 59.5944 164.364 59.7649 164.23 59.9865C164.097 60.2052 164.031 60.4623 164.034 60.7578C164.031 61.0589 164.098 61.3217 164.234 61.5461C164.374 61.7706 164.565 61.9453 164.81 62.0703C165.054 62.1953 165.335 62.2578 165.653 62.2578ZM173.031 58.3714C173.389 58.3743 173.747 58.4424 174.105 58.576C174.463 58.7095 174.789 58.9311 175.085 59.2407C175.38 59.5476 175.617 59.9666 175.796 60.4978C175.975 61.0291 176.065 61.6953 176.065 62.4964C176.065 63.272 175.991 63.9609 175.843 64.5632C175.698 65.1626 175.488 65.6683 175.213 66.0802C174.94 66.4922 174.608 66.8047 174.216 67.0177C173.826 67.2308 173.386 67.3373 172.894 67.3373C172.406 67.3373 171.97 67.2407 171.586 67.0476C171.206 66.8515 170.893 66.5802 170.649 66.2336C170.407 65.8842 170.252 65.4794 170.184 65.0192H171.224C171.318 65.4197 171.504 65.7507 171.782 66.0121C172.064 66.2706 172.434 66.3998 172.894 66.3998C173.568 66.3998 174.099 66.1058 174.488 65.5177C174.88 64.9297 175.076 64.0987 175.076 63.0248H175.008C174.849 63.2635 174.66 63.4694 174.441 63.6427C174.223 63.816 173.98 63.9496 173.713 64.0433C173.446 64.1371 173.162 64.1839 172.86 64.1839C172.36 64.1839 171.902 64.0603 171.484 63.8132C171.069 63.5632 170.737 63.2209 170.487 62.7862C170.24 62.3487 170.116 61.8487 170.116 61.2862C170.116 60.7521 170.235 60.2635 170.474 59.8203C170.716 59.3743 171.054 59.0192 171.488 58.7549C171.926 58.4907 172.44 58.3629 173.031 58.3714ZM173.031 59.3089C172.673 59.3089 172.35 59.3984 172.064 59.5774C171.779 59.7535 171.554 59.9922 171.386 60.2933C171.221 60.5916 171.139 60.9226 171.139 61.2862C171.139 61.6498 171.218 61.9808 171.377 62.2791C171.539 62.5746 171.76 62.8103 172.038 62.9865C172.319 63.1598 172.639 63.2464 172.997 63.2464C173.267 63.2464 173.518 63.1939 173.751 63.0888C173.984 62.9808 174.187 62.8345 174.36 62.6498C174.537 62.4623 174.674 62.2507 174.774 62.0149C174.873 61.7763 174.923 61.5277 174.923 61.2692C174.923 60.9282 174.841 60.6086 174.676 60.3103C174.514 60.0121 174.289 59.7706 174.002 59.5859C173.718 59.4013 173.394 59.3089 173.031 59.3089ZM180.809 58.4907V67.218H179.752V59.5987H179.701L177.57 61.0135V59.9396L179.752 58.4907H180.809ZM186.165 67.3373C185.523 67.3373 184.977 67.1626 184.525 66.8132C184.073 66.4609 183.728 65.951 183.489 65.2834C183.251 64.6129 183.131 63.8032 183.131 62.8544C183.131 61.9112 183.251 61.1058 183.489 60.4382C183.731 59.7677 184.077 59.2564 184.529 58.9041C184.984 58.549 185.529 58.3714 186.165 58.3714C186.802 58.3714 187.346 58.549 187.798 58.9041C188.252 59.2564 188.599 59.7677 188.837 60.4382C189.079 61.1058 189.2 61.9112 189.2 62.8544C189.2 63.8032 189.08 64.6129 188.842 65.2834C188.603 65.951 188.258 66.4609 187.806 66.8132C187.354 67.1626 186.807 67.3373 186.165 67.3373ZM186.165 66.3998C186.802 66.3998 187.296 66.093 187.648 65.4794C188.001 64.8657 188.177 63.9907 188.177 62.8544C188.177 62.0987 188.096 61.4552 187.934 60.924C187.775 60.3927 187.545 59.9879 187.244 59.7095C186.945 59.4311 186.586 59.2919 186.165 59.2919C185.535 59.2919 185.042 59.603 184.687 60.2251C184.332 60.8444 184.154 61.7209 184.154 62.8544C184.154 63.6101 184.234 64.2521 184.393 64.7805C184.552 65.3089 184.78 65.7109 185.079 65.9865C185.38 66.2621 185.742 66.3998 186.165 66.3998ZM190.819 67.218V66.451L193.7 63.2976C194.038 62.9282 194.316 62.6072 194.535 62.3345C194.753 62.0589 194.915 61.8004 195.021 61.5589C195.128 61.3146 195.182 61.0589 195.182 60.7919C195.182 60.4851 195.109 60.2194 194.961 59.995C194.816 59.7706 194.617 59.5973 194.364 59.4751C194.111 59.353 193.827 59.2919 193.512 59.2919C193.177 59.2919 192.884 59.3615 192.634 59.5007C192.387 59.6371 192.195 59.8288 192.059 60.076C191.925 60.3231 191.859 60.6129 191.859 60.9453H190.853C190.853 60.4339 190.971 59.9851 191.207 59.5987C191.442 59.2123 191.763 58.9112 192.17 58.6953C192.579 58.4794 193.038 58.3714 193.546 58.3714C194.057 58.3714 194.511 58.4794 194.905 58.6953C195.3 58.9112 195.61 59.2024 195.834 59.5689C196.059 59.9353 196.171 60.343 196.171 60.7919C196.171 61.1129 196.113 61.4268 195.996 61.7336C195.883 62.0376 195.684 62.3771 195.4 62.7521C195.119 63.1243 194.728 63.5788 194.228 64.1157L192.268 66.2123V66.2805H196.325V67.218H190.819ZM200.982 67.3373C200.624 67.3317 200.266 67.2635 199.908 67.1328C199.55 67.0021 199.224 66.7819 198.928 66.4723C198.633 66.1598 198.396 65.7379 198.217 65.2067C198.038 64.6726 197.948 64.0021 197.948 63.1953C197.948 62.4226 198.021 61.7379 198.165 61.1413C198.31 60.5419 198.521 60.0376 198.796 59.6285C199.072 59.2166 199.404 58.9041 199.793 58.691C200.185 58.478 200.627 58.3714 201.119 58.3714C201.607 58.3714 202.042 58.4694 202.423 58.6655C202.806 58.8586 203.119 59.1285 203.36 59.4751C203.602 59.8217 203.758 60.2209 203.829 60.6726H202.789C202.692 60.2805 202.505 59.9552 202.227 59.6967C201.948 59.4382 201.579 59.3089 201.119 59.3089C200.442 59.3089 199.91 59.603 199.521 60.191C199.134 60.7791 198.94 61.6044 198.937 62.6669H199.005C199.164 62.4254 199.353 62.2194 199.572 62.049C199.793 61.8757 200.038 61.7422 200.305 61.6484C200.572 61.5547 200.854 61.5078 201.153 61.5078C201.653 61.5078 202.11 61.6328 202.525 61.8828C202.94 62.1299 203.272 62.4723 203.522 62.9098C203.772 63.3444 203.897 63.843 203.897 64.4055C203.897 64.9453 203.776 65.4396 203.535 65.8885C203.293 66.3345 202.954 66.6896 202.516 66.9538C202.082 67.2152 201.57 67.343 200.982 67.3373ZM200.982 66.3998C201.34 66.3998 201.661 66.3103 201.945 66.1314C202.232 65.9524 202.458 65.7123 202.623 65.4112C202.79 65.1101 202.874 64.7748 202.874 64.4055C202.874 64.0447 202.793 63.7166 202.631 63.4211C202.472 63.1228 202.252 62.8856 201.971 62.7095C201.692 62.5334 201.374 62.4453 201.016 62.4453C200.746 62.4453 200.495 62.4993 200.262 62.6072C200.029 62.7123 199.825 62.8572 199.648 63.0419C199.475 63.2265 199.339 63.4382 199.239 63.6768C199.14 63.9126 199.09 64.1612 199.09 64.4226C199.09 64.7692 199.171 65.093 199.333 65.3942C199.498 65.6953 199.722 65.9382 200.006 66.1228C200.293 66.3075 200.619 66.3998 200.982 66.3998Z" fill="white"/>
<path d="M231.609 0H229.414V56.2406H231.609V0Z" fill="white"/>
<path d="M236 0H233.805V56.2406H236V0Z" fill="white"/>
</svg>
