<svg width="94" height="36" viewBox="0 0 94 36" fill="none" xmlns="http://www.w3.org/2000/svg">
<rect x="1" y="0.5" width="39" height="35" rx="11.5" fill="#052F35"/>
<rect x="1" y="0.5" width="39" height="35" rx="11.5" stroke="#0E464F"/>
<path d="M17.4999 9.5V26.5M10.9639 15.344C10.7159 15.344 10.4889 15.142 10.4999 14.879C10.5669 13.337 10.7549 12.333 11.2799 11.539C11.5794 11.0865 11.9549 10.6893 12.3899 10.365C13.5549 9.5 15.1999 9.5 18.4919 9.5H22.5059C25.7979 9.5 27.4429 9.5 28.6099 10.365C29.0409 10.685 29.4169 11.082 29.7189 11.539C30.2439 12.333 30.4319 13.337 30.4989 14.879C30.5099 15.142 30.2829 15.344 30.0339 15.344C28.6479 15.344 27.5239 16.533 27.5239 18C27.5239 19.467 28.6479 20.656 30.0339 20.656C30.2829 20.656 30.5099 20.858 30.4989 21.122C30.4319 22.663 30.2439 23.667 29.7189 24.462C29.4193 24.9141 29.0438 25.311 28.6089 25.635C27.4429 26.5 25.7979 26.5 22.5059 26.5H18.4929C15.2009 26.5 13.5559 26.5 12.3889 25.635C11.9543 25.3106 11.5791 24.9134 11.2799 24.461C10.7549 23.667 10.5669 22.663 10.4999 21.121C10.4889 20.858 10.7159 20.656 10.9639 20.656C12.3499 20.656 13.4739 19.467 13.4739 18C13.4739 16.533 12.3499 15.344 10.9639 15.344Z" stroke="white" stroke-width="1.5" stroke-linecap="round" stroke-linejoin="round"/>
<mask id="path-3-outside-1_4003_642" maskUnits="userSpaceOnUse" x="46.5" y="4.688" width="47" height="26" fill="black">
<rect fill="white" x="46.5" y="4.688" width="47" height="26"/>
<path d="M55.572 28.992C55.252 28.992 54.8147 28.8747 54.26 28.64C53.7053 28.384 53.14 28.064 52.564 27.68C51.988 27.2747 51.4973 26.8587 51.092 26.432C50.6867 25.984 50.484 25.5573 50.484 25.152C50.484 24.9173 50.4947 24.672 50.516 24.416C50.5373 24.16 50.5693 23.8293 50.612 23.424C50.6547 22.9973 50.6867 22.432 50.708 21.728C50.7293 21.024 50.74 20.1067 50.74 18.976C50.74 18.5493 50.74 18.1013 50.74 17.632C50.74 17.1627 50.7293 16.672 50.708 16.16H50.132L48.5 14.016L48.724 13.504C49.8547 13.376 50.5693 13.0347 50.868 12.48C51.1667 11.9253 51.316 11.0827 51.316 9.952L51.86 9.76L53.812 11.232C53.812 11.616 53.812 11.9893 53.812 12.352C53.812 12.7147 53.812 13.0773 53.812 13.44H56.532L58.132 15.68L57.908 16.16H53.844C53.844 16.928 53.844 17.664 53.844 18.368C53.844 19.072 53.844 19.744 53.844 20.384C53.844 21.6213 53.8227 22.5707 53.78 23.232C53.7587 23.8933 53.7267 24.384 53.684 24.704C53.6413 25.024 53.62 25.3227 53.62 25.6C53.62 26.0267 53.844 26.24 54.292 26.24C54.676 26.24 55.092 26.144 55.54 25.952C55.988 25.7387 56.404 25.4827 56.788 25.184H57.236L58.74 27.68C58.4413 28.0427 57.972 28.352 57.332 28.608C56.692 28.864 56.1053 28.992 55.572 28.992Z"/>
<path d="M63.1423 11.296L61.0303 9.024V8.704C61.6063 7.936 62.3849 7.264 63.3663 6.688L65.4783 8.896L65.4463 9.28C65.0196 9.57867 64.6143 9.90933 64.2303 10.272C63.8676 10.6347 63.5049 10.976 63.1423 11.296ZM65.9902 29.312C64.6249 28.8 63.5689 28.3413 62.8223 27.936C62.0969 27.5093 61.7343 27.1253 61.7343 26.784C61.7343 26.4853 61.7662 26.0267 61.8302 25.408C61.9156 24.768 61.9583 24.1493 61.9583 23.552V18.976C61.9583 18.4213 61.9796 17.9093 62.0223 17.44C62.0863 16.9493 62.1823 16.5227 62.3103 16.16H61.2543L59.5583 13.984L59.7823 13.44H63.8783L65.7343 15.936C65.4783 16.2773 65.3076 16.704 65.2222 17.216C65.1582 17.728 65.1263 18.3787 65.1263 19.168V23.904C65.1263 24.672 65.0942 25.3547 65.0303 25.952C64.9663 26.528 64.9342 26.9653 64.9342 27.264C64.9342 27.4773 65.0089 27.648 65.1583 27.776C65.3289 27.8827 65.7343 28.1067 66.3743 28.448L65.9902 29.312Z"/>
<path d="M77.5505 24.288L80.2385 26.016C79.8118 27.0187 79.1932 27.7867 78.3825 28.32C77.5932 28.8533 76.6972 29.12 75.6945 29.12C75.0545 29.12 74.3718 28.9813 73.6465 28.704C72.9212 28.4053 72.2385 28.032 71.5985 27.584C70.9585 27.136 70.4252 26.6667 69.9985 26.176C69.5932 25.6853 69.3905 25.2267 69.3905 24.8C69.3905 24.5227 69.3905 24.096 69.3905 23.52C69.4118 22.944 69.4225 22.3467 69.4225 21.728C69.4438 21.088 69.4545 20.5547 69.4545 20.128V17.504C69.4545 16.096 69.8812 15.0293 70.7345 14.304C71.5878 13.5573 72.7292 13.184 74.1585 13.184C74.6065 13.184 75.1292 13.3227 75.7265 13.6C76.3238 13.856 76.9105 14.208 77.4865 14.656C78.0625 15.0827 78.5425 15.5627 78.9265 16.096C79.3105 16.608 79.5025 17.12 79.5025 17.632C79.5025 18.1867 79.4812 18.6773 79.4385 19.104C79.3958 19.5093 79.3425 19.8827 79.2785 20.224L75.9825 19.584C76.1532 18.56 76.2385 17.664 76.2385 16.896C76.2385 16.5333 76.1638 16.288 76.0145 16.16C75.8865 16.032 75.6732 15.968 75.3745 15.968C73.5398 15.968 72.6225 16.8853 72.6225 18.72V21.28C72.6225 22.6453 72.6012 23.648 72.5585 24.288C72.5372 24.9067 72.5265 25.3973 72.5265 25.76C72.5265 25.9947 72.6332 26.176 72.8465 26.304C73.0598 26.432 73.3265 26.496 73.6465 26.496C74.4358 26.496 75.1078 26.336 75.6625 26.016C76.2172 25.6747 76.7185 25.1307 77.1665 24.384L77.5505 24.288Z"/>
<path d="M83.8448 28.672L81.9888 25.888C82.3088 25.3547 82.7568 24.6507 83.3328 23.776C83.9301 22.9013 84.5594 21.9733 85.2208 20.992C85.9034 19.9893 86.5434 19.04 87.1408 18.144C87.7594 17.248 88.2501 16.5227 88.6128 15.968H88.0688C87.0234 15.968 86.1914 16.032 85.5728 16.16C84.9754 16.288 84.4848 16.5227 84.1008 16.864H83.5568L81.6048 13.984L81.8608 13.44H89.6688L91.7488 16.288C91.5568 16.608 91.2581 17.0773 90.8528 17.696C90.4688 18.3147 90.0208 19.0187 89.5088 19.808C89.0181 20.576 88.5061 21.3653 87.9728 22.176C87.4608 22.9653 86.9701 23.712 86.5008 24.416C86.0528 25.0987 85.6901 25.664 85.4128 26.112H85.6048C86.2234 26.1333 87.0021 26.1333 87.9408 26.112C88.9008 26.0693 89.8394 25.9733 90.7568 25.824L92.2928 28.128L92.0368 28.672H83.8448Z"/>
</mask>
<path d="M55.572 28.992C55.252 28.992 54.8147 28.8747 54.26 28.64C53.7053 28.384 53.14 28.064 52.564 27.68C51.988 27.2747 51.4973 26.8587 51.092 26.432C50.6867 25.984 50.484 25.5573 50.484 25.152C50.484 24.9173 50.4947 24.672 50.516 24.416C50.5373 24.16 50.5693 23.8293 50.612 23.424C50.6547 22.9973 50.6867 22.432 50.708 21.728C50.7293 21.024 50.74 20.1067 50.74 18.976C50.74 18.5493 50.74 18.1013 50.74 17.632C50.74 17.1627 50.7293 16.672 50.708 16.16H50.132L48.5 14.016L48.724 13.504C49.8547 13.376 50.5693 13.0347 50.868 12.48C51.1667 11.9253 51.316 11.0827 51.316 9.952L51.86 9.76L53.812 11.232C53.812 11.616 53.812 11.9893 53.812 12.352C53.812 12.7147 53.812 13.0773 53.812 13.44H56.532L58.132 15.68L57.908 16.16H53.844C53.844 16.928 53.844 17.664 53.844 18.368C53.844 19.072 53.844 19.744 53.844 20.384C53.844 21.6213 53.8227 22.5707 53.78 23.232C53.7587 23.8933 53.7267 24.384 53.684 24.704C53.6413 25.024 53.62 25.3227 53.62 25.6C53.62 26.0267 53.844 26.24 54.292 26.24C54.676 26.24 55.092 26.144 55.54 25.952C55.988 25.7387 56.404 25.4827 56.788 25.184H57.236L58.74 27.68C58.4413 28.0427 57.972 28.352 57.332 28.608C56.692 28.864 56.1053 28.992 55.572 28.992Z" fill="#0E464F"/>
<path d="M63.1423 11.296L61.0303 9.024V8.704C61.6063 7.936 62.3849 7.264 63.3663 6.688L65.4783 8.896L65.4463 9.28C65.0196 9.57867 64.6143 9.90933 64.2303 10.272C63.8676 10.6347 63.5049 10.976 63.1423 11.296ZM65.9902 29.312C64.6249 28.8 63.5689 28.3413 62.8223 27.936C62.0969 27.5093 61.7343 27.1253 61.7343 26.784C61.7343 26.4853 61.7662 26.0267 61.8302 25.408C61.9156 24.768 61.9583 24.1493 61.9583 23.552V18.976C61.9583 18.4213 61.9796 17.9093 62.0223 17.44C62.0863 16.9493 62.1823 16.5227 62.3103 16.16H61.2543L59.5583 13.984L59.7823 13.44H63.8783L65.7343 15.936C65.4783 16.2773 65.3076 16.704 65.2222 17.216C65.1582 17.728 65.1263 18.3787 65.1263 19.168V23.904C65.1263 24.672 65.0942 25.3547 65.0303 25.952C64.9663 26.528 64.9342 26.9653 64.9342 27.264C64.9342 27.4773 65.0089 27.648 65.1583 27.776C65.3289 27.8827 65.7343 28.1067 66.3743 28.448L65.9902 29.312Z" fill="#0E464F"/>
<path d="M77.5505 24.288L80.2385 26.016C79.8118 27.0187 79.1932 27.7867 78.3825 28.32C77.5932 28.8533 76.6972 29.12 75.6945 29.12C75.0545 29.12 74.3718 28.9813 73.6465 28.704C72.9212 28.4053 72.2385 28.032 71.5985 27.584C70.9585 27.136 70.4252 26.6667 69.9985 26.176C69.5932 25.6853 69.3905 25.2267 69.3905 24.8C69.3905 24.5227 69.3905 24.096 69.3905 23.52C69.4118 22.944 69.4225 22.3467 69.4225 21.728C69.4438 21.088 69.4545 20.5547 69.4545 20.128V17.504C69.4545 16.096 69.8812 15.0293 70.7345 14.304C71.5878 13.5573 72.7292 13.184 74.1585 13.184C74.6065 13.184 75.1292 13.3227 75.7265 13.6C76.3238 13.856 76.9105 14.208 77.4865 14.656C78.0625 15.0827 78.5425 15.5627 78.9265 16.096C79.3105 16.608 79.5025 17.12 79.5025 17.632C79.5025 18.1867 79.4812 18.6773 79.4385 19.104C79.3958 19.5093 79.3425 19.8827 79.2785 20.224L75.9825 19.584C76.1532 18.56 76.2385 17.664 76.2385 16.896C76.2385 16.5333 76.1638 16.288 76.0145 16.16C75.8865 16.032 75.6732 15.968 75.3745 15.968C73.5398 15.968 72.6225 16.8853 72.6225 18.72V21.28C72.6225 22.6453 72.6012 23.648 72.5585 24.288C72.5372 24.9067 72.5265 25.3973 72.5265 25.76C72.5265 25.9947 72.6332 26.176 72.8465 26.304C73.0598 26.432 73.3265 26.496 73.6465 26.496C74.4358 26.496 75.1078 26.336 75.6625 26.016C76.2172 25.6747 76.7185 25.1307 77.1665 24.384L77.5505 24.288Z" fill="#0E464F"/>
<path d="M83.8448 28.672L81.9888 25.888C82.3088 25.3547 82.7568 24.6507 83.3328 23.776C83.9301 22.9013 84.5594 21.9733 85.2208 20.992C85.9034 19.9893 86.5434 19.04 87.1408 18.144C87.7594 17.248 88.2501 16.5227 88.6128 15.968H88.0688C87.0234 15.968 86.1914 16.032 85.5728 16.16C84.9754 16.288 84.4848 16.5227 84.1008 16.864H83.5568L81.6048 13.984L81.8608 13.44H89.6688L91.7488 16.288C91.5568 16.608 91.2581 17.0773 90.8528 17.696C90.4688 18.3147 90.0208 19.0187 89.5088 19.808C89.0181 20.576 88.5061 21.3653 87.9728 22.176C87.4608 22.9653 86.9701 23.712 86.5008 24.416C86.0528 25.0987 85.6901 25.664 85.4128 26.112H85.6048C86.2234 26.1333 87.0021 26.1333 87.9408 26.112C88.9008 26.0693 89.8394 25.9733 90.7568 25.824L92.2928 28.128L92.0368 28.672H83.8448Z" fill="#0E464F"/>
<path d="M55.572 28.992C55.252 28.992 54.8147 28.8747 54.26 28.64C53.7053 28.384 53.14 28.064 52.564 27.68C51.988 27.2747 51.4973 26.8587 51.092 26.432C50.6867 25.984 50.484 25.5573 50.484 25.152C50.484 24.9173 50.4947 24.672 50.516 24.416C50.5373 24.16 50.5693 23.8293 50.612 23.424C50.6547 22.9973 50.6867 22.432 50.708 21.728C50.7293 21.024 50.74 20.1067 50.74 18.976C50.74 18.5493 50.74 18.1013 50.74 17.632C50.74 17.1627 50.7293 16.672 50.708 16.16H50.132L48.5 14.016L48.724 13.504C49.8547 13.376 50.5693 13.0347 50.868 12.48C51.1667 11.9253 51.316 11.0827 51.316 9.952L51.86 9.76L53.812 11.232C53.812 11.616 53.812 11.9893 53.812 12.352C53.812 12.7147 53.812 13.0773 53.812 13.44H56.532L58.132 15.68L57.908 16.16H53.844C53.844 16.928 53.844 17.664 53.844 18.368C53.844 19.072 53.844 19.744 53.844 20.384C53.844 21.6213 53.8227 22.5707 53.78 23.232C53.7587 23.8933 53.7267 24.384 53.684 24.704C53.6413 25.024 53.62 25.3227 53.62 25.6C53.62 26.0267 53.844 26.24 54.292 26.24C54.676 26.24 55.092 26.144 55.54 25.952C55.988 25.7387 56.404 25.4827 56.788 25.184H57.236L58.74 27.68C58.4413 28.0427 57.972 28.352 57.332 28.608C56.692 28.864 56.1053 28.992 55.572 28.992Z" stroke="white" stroke-width="2" mask="url(#path-3-outside-1_4003_642)"/>
<path d="M63.1423 11.296L61.0303 9.024V8.704C61.6063 7.936 62.3849 7.264 63.3663 6.688L65.4783 8.896L65.4463 9.28C65.0196 9.57867 64.6143 9.90933 64.2303 10.272C63.8676 10.6347 63.5049 10.976 63.1423 11.296ZM65.9902 29.312C64.6249 28.8 63.5689 28.3413 62.8223 27.936C62.0969 27.5093 61.7343 27.1253 61.7343 26.784C61.7343 26.4853 61.7662 26.0267 61.8302 25.408C61.9156 24.768 61.9583 24.1493 61.9583 23.552V18.976C61.9583 18.4213 61.9796 17.9093 62.0223 17.44C62.0863 16.9493 62.1823 16.5227 62.3103 16.16H61.2543L59.5583 13.984L59.7823 13.44H63.8783L65.7343 15.936C65.4783 16.2773 65.3076 16.704 65.2222 17.216C65.1582 17.728 65.1263 18.3787 65.1263 19.168V23.904C65.1263 24.672 65.0942 25.3547 65.0303 25.952C64.9663 26.528 64.9342 26.9653 64.9342 27.264C64.9342 27.4773 65.0089 27.648 65.1583 27.776C65.3289 27.8827 65.7343 28.1067 66.3743 28.448L65.9902 29.312Z" stroke="white" stroke-width="2" mask="url(#path-3-outside-1_4003_642)"/>
<path d="M77.5505 24.288L80.2385 26.016C79.8118 27.0187 79.1932 27.7867 78.3825 28.32C77.5932 28.8533 76.6972 29.12 75.6945 29.12C75.0545 29.12 74.3718 28.9813 73.6465 28.704C72.9212 28.4053 72.2385 28.032 71.5985 27.584C70.9585 27.136 70.4252 26.6667 69.9985 26.176C69.5932 25.6853 69.3905 25.2267 69.3905 24.8C69.3905 24.5227 69.3905 24.096 69.3905 23.52C69.4118 22.944 69.4225 22.3467 69.4225 21.728C69.4438 21.088 69.4545 20.5547 69.4545 20.128V17.504C69.4545 16.096 69.8812 15.0293 70.7345 14.304C71.5878 13.5573 72.7292 13.184 74.1585 13.184C74.6065 13.184 75.1292 13.3227 75.7265 13.6C76.3238 13.856 76.9105 14.208 77.4865 14.656C78.0625 15.0827 78.5425 15.5627 78.9265 16.096C79.3105 16.608 79.5025 17.12 79.5025 17.632C79.5025 18.1867 79.4812 18.6773 79.4385 19.104C79.3958 19.5093 79.3425 19.8827 79.2785 20.224L75.9825 19.584C76.1532 18.56 76.2385 17.664 76.2385 16.896C76.2385 16.5333 76.1638 16.288 76.0145 16.16C75.8865 16.032 75.6732 15.968 75.3745 15.968C73.5398 15.968 72.6225 16.8853 72.6225 18.72V21.28C72.6225 22.6453 72.6012 23.648 72.5585 24.288C72.5372 24.9067 72.5265 25.3973 72.5265 25.76C72.5265 25.9947 72.6332 26.176 72.8465 26.304C73.0598 26.432 73.3265 26.496 73.6465 26.496C74.4358 26.496 75.1078 26.336 75.6625 26.016C76.2172 25.6747 76.7185 25.1307 77.1665 24.384L77.5505 24.288Z" stroke="white" stroke-width="2" mask="url(#path-3-outside-1_4003_642)"/>
<path d="M83.8448 28.672L81.9888 25.888C82.3088 25.3547 82.7568 24.6507 83.3328 23.776C83.9301 22.9013 84.5594 21.9733 85.2208 20.992C85.9034 19.9893 86.5434 19.04 87.1408 18.144C87.7594 17.248 88.2501 16.5227 88.6128 15.968H88.0688C87.0234 15.968 86.1914 16.032 85.5728 16.16C84.9754 16.288 84.4848 16.5227 84.1008 16.864H83.5568L81.6048 13.984L81.8608 13.44H89.6688L91.7488 16.288C91.5568 16.608 91.2581 17.0773 90.8528 17.696C90.4688 18.3147 90.0208 19.0187 89.5088 19.808C89.0181 20.576 88.5061 21.3653 87.9728 22.176C87.4608 22.9653 86.9701 23.712 86.5008 24.416C86.0528 25.0987 85.6901 25.664 85.4128 26.112H85.6048C86.2234 26.1333 87.0021 26.1333 87.9408 26.112C88.9008 26.0693 89.8394 25.9733 90.7568 25.824L92.2928 28.128L92.0368 28.672H83.8448Z" stroke="white" stroke-width="2" mask="url(#path-3-outside-1_4003_642)"/>
</svg>
